<?xml version="1.0" encoding="UTF-8" standalone="no"?>
<!-- Created with Inkscape (http://www.inkscape.org/) -->

<svg
   width="210mm"
   height="114.87244mm"
   viewBox="0 0 210 114.87244"
   version="1.1"
   id="svg1"
   inkscape:version="1.3.2 (091e20e, 2023-11-25, custom)"
   sodipodi:docname="ICONS.svg"
   xml:space="preserve"
   inkscape:export-filename="app.png"
   inkscape:export-xdpi="166.05408"
   inkscape:export-ydpi="166.05408"
   xmlns:inkscape="http://www.inkscape.org/namespaces/inkscape"
   xmlns:sodipodi="http://sodipodi.sourceforge.net/DTD/sodipodi-0.dtd"
   xmlns="http://www.w3.org/2000/svg"
   xmlns:svg="http://www.w3.org/2000/svg"><sodipodi:namedview
     id="namedview1"
     pagecolor="#ffffff"
     bordercolor="#000000"
     borderopacity="0.25"
     inkscape:showpageshadow="2"
     inkscape:pageopacity="0.0"
     inkscape:pagecheckerboard="0"
     inkscape:deskcolor="#d1d1d1"
     inkscape:document-units="px"
     inkscape:zoom="0.70710678"
     inkscape:cx="374.05949"
     inkscape:cy="444.06306"
     inkscape:window-width="1920"
     inkscape:window-height="1017"
     inkscape:window-x="-8"
     inkscape:window-y="-8"
     inkscape:window-maximized="1"
     inkscape:current-layer="layer1"
     showguides="true" /><defs
     id="defs1" /><g
     inkscape:label="Слой 1"
     inkscape:groupmode="layer"
     id="layer1"><rect
       style="fill:#ececec;fill-opacity:1;fill-rule:evenodd;stroke-width:0.264582"
       id="rect14"
       width="19.579166"
       height="19.579161"
       x="92.487564"
       y="79.595901"
       inkscape:export-filename="stop.svg"
       inkscape:export-xdpi="96"
       inkscape:export-ydpi="96"
       rx="1.529622"
       ry="1.529622" /><rect
       style="fill:#ececec;fill-opacity:1;fill-rule:evenodd;stroke-width:0.264582"
       id="rect13"
       width="19.579166"
       height="19.579161"
       x="40.855568"
       y="79.595901"
       inkscape:export-filename="loading.svg"
       inkscape:export-xdpi="96"
       inkscape:export-ydpi="96"
       rx="1.529622"
       ry="1.529622" /><g
       id="g5"
       transform="matrix(0.95066519,0,0,0.95157288,29.403488,7.9497238)"
       style="stroke-width:1.05139"><path
         id="ellipse12"
         style="fill:none;fill-opacity:1;fill-rule:evenodd;stroke:#333333;stroke-width:1.39091;stroke-linecap:round;stroke-linejoin:round;stroke-dasharray:none;stroke-opacity:1"
         d="m 15.788764,79.652447 v 11.855374 c -1e-6,1.256059 2.93497,2.274297 6.555441,2.274297 3.62047,0 6.555441,-1.018238 6.55544,-2.274297 V 79.652447"
         inkscape:export-filename="loading.svg"
         inkscape:export-xdpi="96"
         inkscape:export-ydpi="96"
         sodipodi:nodetypes="csssc" /><ellipse
         style="fill:none;fill-opacity:1;fill-rule:evenodd;stroke:#333333;stroke-width:1.39091;stroke-linecap:round;stroke-linejoin:round;stroke-dasharray:none;stroke-opacity:1"
         id="path12"
         cx="22.34391"
         cy="79.652222"
         rx="6.5554414"
         ry="2.2742965" /><path
         id="ellipse14"
         style="fill:none;fill-rule:evenodd;stroke:#333333;stroke-width:1.39091;stroke-linecap:round;stroke-linejoin:round;stroke-dasharray:none;stroke-opacity:1"
         d="m 28.899645,87.556029 c 0,1.256059 -2.93497,2.274296 -6.555439,2.274296 -3.62047,0 -6.555441,-1.018237 -6.555441,-2.274296"
         sodipodi:nodetypes="csc" /><path
         id="path14"
         style="fill:none;fill-rule:evenodd;stroke:#333333;stroke-width:1.39091;stroke-linecap:round;stroke-linejoin:round;stroke-dasharray:none;stroke-opacity:1"
         d="m 28.899645,83.604239 c 0,1.256059 -2.93497,2.274297 -6.555439,2.274297 -3.62047,0 -6.555441,-1.018238 -6.555441,-2.274297"
         sodipodi:nodetypes="csc" /></g><rect
       style="fill:#ececec;fill-opacity:1;fill-rule:evenodd;stroke-width:0.264582"
       id="rect2"
       width="19.579166"
       height="19.579161"
       x="67.040466"
       y="79.595901"
       inkscape:export-filename="start.svg"
       inkscape:export-xdpi="96"
       inkscape:export-ydpi="96"
       rx="1.529622"
       ry="1.529622" /><rect
       style="fill:#1b1b1b;fill-opacity:1;fill-rule:evenodd;stroke-width:0.264583"
       id="rect5"
       width="2.0964284"
       height="5.5549111"
       x="52.8069"
       y="-88.797882"
       inkscape:transform-center-y="4.9424196"
       transform="matrix(0.8660254,-0.5,-0.5,-0.8660254,0,0)"
       inkscape:transform-center-x="-2.8535085"
       inkscape:export-filename="recognizing.svg"
       inkscape:export-xdpi="96"
       inkscape:export-ydpi="96" /><rect
       style="fill:#1b1b1b;fill-opacity:0.72;fill-rule:evenodd;stroke-width:0.264583"
       id="rect6"
       width="2.0964284"
       height="5.5549111"
       x="-81.361618"
       y="-62.339581"
       transform="matrix(-0.5,-0.8660254,-0.8660254,0.5,0,0)"
       inkscape:transform-center-x="-4.9424175"
       inkscape:transform-center-y="-2.8535056" /><rect
       style="fill:#1b1b1b;fill-opacity:0.84;fill-rule:evenodd;stroke-width:0.264583"
       id="rect7"
       width="2.0964284"
       height="5.5549111"
       x="-19.75705"
       y="-103.35594"
       transform="matrix(0.25881905,-0.96592582,-0.96592582,-0.25881905,0,0)"
       inkscape:transform-center-x="-5.5125517"
       inkscape:transform-center-y="1.4770863" /><rect
       style="fill:#1b1b1b;fill-opacity:0.6;fill-rule:evenodd;stroke-width:0.264583"
       id="rect8"
       width="2.0964284"
       height="5.5549111"
       x="-95.919678"
       y="10.224363"
       transform="matrix(-0.96592582,-0.25881905,-0.25881905,0.96592582,0,0)"
       inkscape:transform-center-x="-1.4770856"
       inkscape:transform-center-y="-5.5125538" /><rect
       style="fill:#1b1b1b;fill-opacity:0.48;fill-rule:evenodd;stroke-width:0.264583"
       id="rect9"
       width="2.0964284"
       height="5.5549111"
       x="-54.903324"
       y="71.828934"
       inkscape:transform-center-y="-4.9424188"
       transform="matrix(-0.8660254,0.5,0.5,0.8660254,0,0)"
       inkscape:transform-center-x="2.8535083" /><rect
       style="fill:#1b1b1b;fill-opacity:0.24;fill-rule:evenodd;stroke-width:0.264583"
       id="rect10"
       width="2.0964284"
       height="5.5549111"
       x="79.26519"
       y="45.370644"
       transform="matrix(0.5,0.8660254,0.8660254,-0.5,0,0)"
       inkscape:transform-center-x="4.9424205"
       inkscape:transform-center-y="2.8535041" /><rect
       style="fill:#1b1b1b;fill-opacity:0.36;fill-rule:evenodd;stroke-width:0.264583"
       id="rect11"
       width="2.0964284"
       height="5.5549111"
       x="17.660622"
       y="86.386993"
       transform="matrix(-0.25881905,0.96592582,0.96592582,0.25881905,0,0)"
       inkscape:transform-center-x="5.5125544"
       inkscape:transform-center-y="-1.4770819" /><rect
       style="fill:#1b1b1b;fill-opacity:0.119149;fill-rule:evenodd;stroke-width:0.264583"
       id="rect12"
       width="2.0964284"
       height="5.5549111"
       x="93.823242"
       y="-27.193304"
       transform="matrix(0.96592582,0.25881905,0.25881905,-0.96592582,0,0)"
       inkscape:transform-center-x="1.477088"
       inkscape:transform-center-y="5.5125505" /><rect
       style="display:inline;fill:#222222;fill-opacity:1;fill-rule:evenodd;stroke-width:0.264583"
       id="rect832-6"
       width="33.072918"
       height="33.072918"
       x="14.684361"
       y="4.3656173"
       rx="5.2994504"
       ry="5.2994504" /><path
       style="display:inline;fill:#ffffff;fill-opacity:1;stroke:none;stroke-width:0.264583"
       d="m 29.885816,26.575613 c -0.784754,-0.78478 -1.413668,-2.489358 -2.523886,-2.813023 -0.827802,-0.241485 -1.503813,0.560626 -2.208345,0.394361 -1.028171,-0.242755 -1.665367,-1.606735 -2.681605,-1.945587 -0.684557,-0.228071 -1.279949,0.233019 -1.629992,0.736203 -0.940779,1.352286 -0.763588,2.381753 0.07887,3.785791 0.459264,0.76536 1.922383,1.648566 2.81305,1.735137 1.259284,0.12245 2.794582,-0.411215 3.680619,0.788723 0.411982,0.557795 0.826346,1.514317 0.893868,2.208398 0.174334,1.793505 -0.648494,4.274635 2.050627,4.574487 2.31976,0.257757 1.334981,-1.934369 1.971807,-3.154812 0.19513,-0.373883 0.66249,-0.596133 1.025313,-0.762344 0.827379,-0.379254 1.80094,-0.09845 2.681605,-0.184097 1.29585,-0.126048 2.953121,-0.517075 3.891016,-1.472221 0.804148,-0.819177 1.135432,-2.404295 1.656291,-3.417782 0.34118,-0.664078 1.574271,-1.681056 1.366996,-2.52386 -0.222117,-0.903552 -2.498169,0.466936 -2.970768,0.657278 -1.744768,0.702759 -3.593359,0.831479 -5.36321,1.445868 -1.257326,0.436642 -2.270072,1.38766 -3.312556,2.155852 0,-1.862932 0.180128,-3.82569 0,-5.678673 -0.08755,-0.900721 -0.570389,-2.795191 -0.0789,-3.628072 0.286305,-0.48522 0.75938,-0.198914 1.183084,-0.157719 0.708078,0.06877 1.674284,0.110702 2.366142,-0.05257 0.639604,-0.151104 1.503866,-0.424313 2.050627,-0.788697 0.494665,-0.329829 0.825474,-0.817536 1.419648,-0.999119 1.564191,-0.477811 3.669586,0.07903 5.047774,-0.893763 0.889159,-0.62783 0.540676,-1.810649 0.131392,-2.629085 -0.179705,-0.359516 -0.696912,-0.822007 -0.525753,-1.26193 0.211825,-0.544724 0.911278,-0.78576 1.183031,-1.28823 1.281642,-2.3691853 -1.963552,-2.0880653 -3.154812,-2.1820723 0.01826,-0.686964 0.351605,-1.410017 -0.07887,-2.050653 -0.443283,-0.659765 -2.790614,-1.199144 -3.549174,-1.051613 -0.629259,0.122344 -1.59086,0.831612 -2.208398,0.709825 -0.885878,-0.174705 -1.083072,-1.202929 -2.208397,-1.077886 -1.764004,0.196003 -2.759208,2.371486 -4.574514,2.497534 -1.666557,0.115755 -4.207854,-0.71501 -5.652399,0.552159 -0.748586,0.656616 0.166899,1.6532753 -0.525807,2.2609173 -0.987346,0.86614 -3.462628,1.10408 -3.996134,2.418715 -0.24638,0.607272 0.219868,1.231768 0.499533,1.735164 0.290301,0.522605 0.312658,1.159431 0.841269,1.524873 1.166522,0.806265 3.008895,-0.143695 4.101306,0.709825 0.94025,0.734642 1.187715,2.072772 2.681605,2.155745 0.855716,0.04765 2.315343,-1.12186 2.997095,-0.841269 0.735541,0.302868 0.415025,1.373637 0.473233,1.971781 0.179652,1.847321 0.688525,4.003013 0.157718,5.836443 M 33.987123,9.3817717 h -3.785791 l -0.157745,-0.788723 c 1.029415,-0.4064 3.63437,-3.098562 3.943536,-0.315437 0.03977,0.357929 0,0.74348 0,1.10416 m 2.681578,-1.866583 c 0.388355,-0.133509 0.881327,0.005 1.26193,0.07885 0.304483,0.05921 0.654791,0 0.946494,0.105172 2.191306,0.793961 -1.724131,2.7322463 -0.920141,3.7332183 1.167791,1.453806 3.238606,-1.7842183 4.521835,-0.867596 0.409363,0.292365 -0.0048,0.917258 -0.289163,1.130512 -0.700511,0.525383 -1.389513,0.624628 -2.050627,1.314503 -0.15158,0.158115 -0.553535,0.471329 -0.499586,0.736124 0.12274,0.602191 1.826498,0.43299 2.234776,0.841269 0.400024,0.400023 0.43442,0.991685 -0.157771,1.209437 -1.036849,0.381106 -2.730209,0.249211 -3.785817,0 -0.354753,-0.08379 -0.998987,-0.282681 -1.025287,-0.736203 -0.04591,-0.79293 0.729695,-1.390836 0.49956,-2.366116 -0.263419,-1.115483 -1.998133,-2.004695 -1.998133,-2.9970683 0,-0.437541 0.456036,-0.733769 0.630978,-1.104238 0.17952,-0.380074 0.167217,-0.918448 0.630952,-1.07786 m -11.672834,1.892856 c 1.625441,-0.338641 1.401789,0.6348943 0.999013,1.7088913 -0.170444,0.454395 -0.121999,1.537546 -0.683577,1.708864 -0.598884,0.182721 -0.710644,-0.685959 -0.841269,-1.077886 -0.310965,-0.932921 -0.81706,-2.0600993 0.525833,-2.3398693 m 6.309651,0.9464673 c 1.395994,-0.21328 3.887549,0.44278 4.600839,1.708891 0.219895,0.390419 0.580496,1.290743 0.368009,1.735164 -0.524642,1.097068 -3.552957,1.610386 -4.653386,1.656265 -1.354852,0.05646 -2.47261,0.02275 -3.785817,-0.341762 -0.358933,-0.09972 -0.941334,-0.103611 -1.209357,-0.394362 -0.504428,-0.54737 -0.128217,-1.528048 0.315489,-1.97178 0.763905,-0.763905 1.814909,-0.804334 2.629032,-1.367076 0.764725,-0.528638 0.706888,-0.868257 1.735191,-1.02534 m -6.467449,3.128539 c 0.01508,0.568907 0.447755,1.669812 0.07887,2.182098 -0.264212,0.36703 -1.255421,0.184018 -1.656291,0.184018 -0.765863,0 -2.158656,0.145759 -2.786724,-0.394335 -1.420548,-1.221687 -0.199099,-2.861098 1.367075,-2.839349 1.069949,0.01508 1.90426,0.838808 2.997068,0.867568 m 7.41389,2.839403 c 0.667596,0 1.240763,-0.252122 1.892882,-0.315516 0.656537,-0.0639 2.148628,0.633333 1.498547,1.524873 -0.372084,0.510302 -2.930208,0.656828 -3.312557,0.157718 -0.221007,-0.288634 -0.07887,-1.019307 -0.07887,-1.367075 m -5.678699,0.18407 c 1.019386,-0.35052 3.339359,0.594493 1.419701,1.314424 -0.435266,0.163248 -1.296035,0.402405 -1.708891,0.105225 -0.427514,-0.307922 -0.16928,-1.262116 0.28919,-1.419649 m 2.050626,11.804253 c -0.679714,-0.250511 -1.200414,-0.839976 -1.892908,-1.051669 -1.885077,-0.575919 -4.250452,0.304112 -4.784831,-2.260891 -0.101362,-0.486649 -0.08538,-0.785257 0.0526,-1.261957 1.453383,0.11467 1.965166,1.310825 3.154839,1.971754 0.827564,0.459846 1.259893,-0.167984 2.050653,-0.07885 1.044998,0.117661 1.419648,1.846819 1.419648,2.681605 m 11.357398,-1.735164 c 0.30099,0.714693 -0.06212,1.05971 -0.315489,1.735164 -0.130598,0.348113 -0.189468,0.765361 -0.394335,1.077833 -1.206579,1.840072 -3.700462,1.143133 -5.442082,1.28831 -0.651484,0.05427 -1.225973,0.315462 -1.892935,0.315462 0,-2.620565 3.414818,-3.220614 5.363263,-3.680592 0.90207,-0.213095 1.767972,-0.567822 2.681578,-0.736177 z"
       id="path156448-9-7-9"
       inkscape:export-filename="app.svg"
       inkscape:export-xdpi="96"
       inkscape:export-ydpi="96" /><g
       id="g24"
       transform="matrix(0.99991123,0,0,0.99991367,25.915608,-0.34152949)"
       style="stroke-width:1.00009"><rect
         style="fill:none;fill-rule:evenodd;stroke:#333333;stroke-width:1.32303;stroke-linecap:butt;stroke-linejoin:bevel;stroke-dasharray:none;stroke-opacity:1"
         id="rect1"
         width="5.6292696"
         height="9.6805592"
         x="45.92844"
         y="81.928818"
         rx="1.0169561"
         ry="1.0169561" /><path
         id="rect3"
         style="fill:none;fill-rule:evenodd;stroke:#333333;stroke-width:1.32303;stroke-linecap:butt;stroke-linejoin:bevel;stroke-dasharray:none;stroke-opacity:1"
         d="m 54.573384,88.449399 v 2.156805 c 0,2.389743 -1.927823,4.313617 -4.322475,4.313617 h -2.814633 c -2.394652,0 -4.322476,-1.923874 -4.322476,-4.313617 v -2.156805"
         sodipodi:nodetypes="cssssc" /><path
         style="fill:none;stroke:#333333;stroke-width:1.32303;stroke-linecap:butt;stroke-linejoin:bevel;stroke-dasharray:none;stroke-opacity:1"
         d="m 48.843592,94.919821 v 2.608236"
         id="path3"
         sodipodi:nodetypes="cc" /><path
         style="fill:none;stroke:#333333;stroke-width:1.32303;stroke-linecap:butt;stroke-linejoin:bevel;stroke-dasharray:none;stroke-opacity:1"
         d="m 45.262472,97.540593 3.58112,-0.01254 3.58112,-0.01254"
         id="path4"
         sodipodi:nodetypes="ccc" /></g><path
       style="fill:#2fff00;fill-opacity:1;stroke:#000000;stroke-width:1.32292;stroke-linecap:round;stroke-linejoin:round;stroke-dasharray:none;stroke-opacity:1"
       d="m 79.67443,89.782366 v 7.408333 l 4.960937,-3.704167 z"
       id="path13"
       sodipodi:nodetypes="cccc" /><g
       id="g23"
       transform="matrix(0.99995545,0,0,0.99995667,24.327406,-0.34572887)"
       style="stroke-width:1.00004"><rect
         style="fill:none;fill-rule:evenodd;stroke:#333333;stroke-width:1.32297;stroke-linecap:butt;stroke-linejoin:bevel;stroke-dasharray:none;stroke-opacity:1"
         id="rect22"
         width="5.6292696"
         height="9.6805592"
         x="72.962746"
         y="81.929489"
         rx="1.0169561"
         ry="1.0169561" /><path
         id="path15"
         style="fill:none;fill-rule:evenodd;stroke:#333333;stroke-width:1.32297;stroke-linecap:butt;stroke-linejoin:bevel;stroke-dasharray:none;stroke-opacity:1"
         d="m 81.607697,88.449399 v 2.156805 c 0,2.389743 -1.927824,4.313617 -4.322475,4.313617 h -2.814634 c -2.394652,0 -4.322475,-1.923874 -4.322475,-4.313617 v -2.156805"
         sodipodi:nodetypes="cssssc" /><path
         style="fill:none;stroke:#333333;stroke-width:1.32297;stroke-linecap:butt;stroke-linejoin:bevel;stroke-dasharray:none;stroke-opacity:1"
         d="m 75.877905,94.919821 v 2.608236"
         id="path16"
         sodipodi:nodetypes="cc" /><path
         style="fill:none;stroke:#333333;stroke-width:1.32297;stroke-linecap:butt;stroke-linejoin:bevel;stroke-dasharray:none;stroke-opacity:1"
         d="m 72.296785,97.540593 3.58112,-0.01254 3.58112,-0.01254"
         id="path17"
         sodipodi:nodetypes="ccc" /></g><path
       style="fill:#ff0e00;fill-opacity:1;stroke:#000000;stroke-width:1.32292;stroke-linecap:round;stroke-linejoin:round;stroke-dasharray:none;stroke-opacity:1"
       d="m 104.47982,90.685362 v 5.602317 h 5.60231 v -5.602317 z"
       id="path18"
       sodipodi:nodetypes="ccccc" /><rect
       style="fill:#ececec;fill-opacity:1;fill-rule:evenodd;stroke-width:0.264582"
       id="rect14-9"
       width="19.579166"
       height="19.579161"
       x="118.36787"
       y="79.595901"
       inkscape:export-filename="analyzing.svg"
       inkscape:export-xdpi="96"
       inkscape:export-ydpi="96"
       rx="1.529622"
       ry="1.529622" /><circle
       style="fill:#ffff00;fill-opacity:1;fill-rule:evenodd;stroke:#000000;stroke-width:1.32292;stroke-dasharray:none;stroke-opacity:1"
       id="path24"
       cx="55.143124"
       cy="93.88327"
       r="3.3072901" /><g
       id="g34"
       style="fill:none;stroke:#333333;stroke-width:0.599395;stroke-dasharray:none;stroke-opacity:1"
       transform="matrix(-2.2070921,0,0,2.2070921,365.80826,-162.20015)"><path
         style="fill:none;stroke:#333333;stroke-width:0.599395;stroke-linecap:butt;stroke-linejoin:miter;stroke-dasharray:none;stroke-opacity:1"
         d="m 104.8632,112.22981 v 3.51961"
         id="path28" /><path
         style="fill:none;stroke:#333333;stroke-width:0.599395;stroke-linecap:butt;stroke-linejoin:miter;stroke-dasharray:none;stroke-opacity:1"
         d="m 105.92142,111.14821 v 5.68282"
         id="path29" /><path
         style="fill:none;stroke:#333333;stroke-width:0.599395;stroke-linecap:butt;stroke-linejoin:miter;stroke-dasharray:none;stroke-opacity:1"
         d="m 106.97964,112.46952 v 3.04019"
         id="path30" /><path
         style="fill:none;stroke:#333333;stroke-width:0.599395;stroke-linecap:butt;stroke-linejoin:miter;stroke-dasharray:none;stroke-opacity:1"
         d="m 108.03786,113.24711 v 1.48501"
         id="path31" /><path
         style="fill:none;stroke:#333333;stroke-width:0.599395;stroke-linecap:butt;stroke-linejoin:miter;stroke-dasharray:none;stroke-opacity:1"
         d="m 109.09608,112.42274 v 3.13374"
         id="path32" /><path
         style="fill:none;stroke:#333333;stroke-width:0.599395;stroke-linecap:butt;stroke-linejoin:miter;stroke-dasharray:none;stroke-opacity:1"
         d="m 110.1543,111.11312 v 5.75298"
         id="path33" /><path
         style="fill:none;stroke:#333333;stroke-width:0.599395;stroke-linecap:butt;stroke-linejoin:miter;stroke-dasharray:none;stroke-opacity:1"
         d="m 111.21252,113.0074 v 1.96444"
         id="path34" /></g><circle
       style="fill:#00deff;fill-opacity:1;fill-rule:evenodd;stroke:#000000;stroke-width:1.32292;stroke-dasharray:none;stroke-opacity:1"
       id="path24-2"
       cx="132.65511"
       cy="93.883339"
       r="3.3072901" /><rect
       style="fill:#ececec;fill-opacity:1;fill-rule:evenodd;stroke-width:0.264582"
       id="rect14-9-7"
       width="19.579166"
       height="19.579161"
       x="144.37453"
       y="79.595901"
       inkscape:export-filename="settings.svg"
       inkscape:export-xdpi="96"
       inkscape:export-ydpi="96"
       rx="1.529622"
       ry="1.529622" /><path
       id="path36"
       style="fill:none;fill-opacity:1;fill-rule:evenodd;stroke:#333333;stroke-width:1.32292;stroke-linecap:round;stroke-linejoin:round;stroke-dasharray:none;stroke-opacity:1"
       d="m 153.21369,81.580273 -0.36727,2.322781 a 5.6520435,5.6520435 0 0 0 -1.5679,0.635016 l -1.91417,-1.391287 -1.39127,1.391287 1.37866,1.896625 a 5.6520435,5.6520435 0 0 0 -0.65533,1.56301 l -2.3375,0.370073 v 1.968116 l 2.32278,0.367278 a 5.6520435,5.6520435 0 0 0 0.635,1.567908 l -1.39127,1.914148 1.39127,1.391287 1.89664,-1.378673 a 5.6520435,5.6520435 0 0 0 1.563,0.655347 l 0.37007,2.337497 h 1.96813 l 0.36727,-2.322781 a 5.6520435,5.6520435 0 0 0 1.5679,-0.635016 l 1.91417,1.391287 1.39128,-1.391287 -1.37867,-1.896625 a 5.6520435,5.6520435 0 0 0 0.65533,-1.56301 l 2.3375,-0.370073 v -1.968116 l -2.31015,-0.365176 a 5.6520435,5.6520435 0 0 0 -0.64062,-1.579124 l 1.38427,-1.905034 -1.39128,-1.391287 -1.89173,1.374468 a 5.6520435,5.6520435 0 0 0 -1.57001,-0.662359 l -0.36797,-2.32628 z m 0.95043,5.360479 a 2.4447333,2.4447333 0 0 1 2.44472,2.444727 2.4447333,2.4447333 0 0 1 -2.44472,2.444728 2.4447333,2.4447333 0 0 1 -2.44474,-2.444728 2.4447333,2.4447333 0 0 1 2.44474,-2.444727 z" /><rect
       style="fill:#ececec;fill-opacity:1;fill-rule:evenodd;stroke-width:0.264582"
       id="rect2-3"
       width="19.579166"
       height="19.579161"
       x="15.663742"
       y="79.595901"
       inkscape:export-filename="app.svg"
       inkscape:export-xdpi="96"
       inkscape:export-ydpi="96"
       rx="1.529622"
       ry="1.529622" /><g
       id="g24-0"
       transform="matrix(0.99991123,0,0,0.99991367,-23.385931,-0.34147214)"
       style="stroke-width:1.00009"><rect
         style="fill:none;fill-rule:evenodd;stroke:#333333;stroke-width:1.32303;stroke-linecap:butt;stroke-linejoin:bevel;stroke-dasharray:none;stroke-opacity:1"
         id="rect1-7"
         width="5.6292696"
         height="9.6805592"
         x="45.92844"
         y="81.928818"
         rx="1.0169561"
         ry="1.0169561" /><path
         id="rect3-3"
         style="fill:none;fill-rule:evenodd;stroke:#333333;stroke-width:1.32303;stroke-linecap:butt;stroke-linejoin:bevel;stroke-dasharray:none;stroke-opacity:1"
         d="m 54.573384,88.449399 v 2.156805 c 0,2.389743 -1.927823,4.313617 -4.322475,4.313617 h -2.814633 c -2.394652,0 -4.322476,-1.923874 -4.322476,-4.313617 v -2.156805"
         sodipodi:nodetypes="cssssc" /><path
         style="fill:none;stroke:#333333;stroke-width:1.32303;stroke-linecap:butt;stroke-linejoin:bevel;stroke-dasharray:none;stroke-opacity:1"
         d="m 48.843592,94.919821 v 2.608236"
         id="path3-6"
         sodipodi:nodetypes="cc" /><path
         style="fill:none;stroke:#333333;stroke-width:1.32303;stroke-linecap:butt;stroke-linejoin:bevel;stroke-dasharray:none;stroke-opacity:1"
         d="m 45.262472,97.540593 3.58112,-0.01254 3.58112,-0.01254"
         id="path4-5"
         sodipodi:nodetypes="ccc" /></g><rect
       style="fill:#ececec;fill-opacity:1;fill-rule:evenodd;stroke-width:0.264582"
       id="rect44"
       width="19.579166"
       height="19.579161"
       x="171.43594"
       y="79.595901"
       inkscape:export-filename="recording.svg"
       inkscape:export-xdpi="96"
       inkscape:export-ydpi="96"
       rx="1.529622"
       ry="1.529622" /><g
       id="g47"
       transform="matrix(0.99991123,0,0,0.99991367,130.31109,-0.34152949)"
       style="stroke-width:1.00009"><rect
         style="fill:none;fill-rule:evenodd;stroke:#333333;stroke-width:1.32303;stroke-linecap:butt;stroke-linejoin:bevel;stroke-dasharray:none;stroke-opacity:1"
         id="rect45"
         width="5.6292696"
         height="9.6805592"
         x="45.92844"
         y="81.928818"
         rx="1.0169561"
         ry="1.0169561" /><path
         id="path45"
         style="fill:none;fill-rule:evenodd;stroke:#333333;stroke-width:1.32303;stroke-linecap:butt;stroke-linejoin:bevel;stroke-dasharray:none;stroke-opacity:1"
         d="m 54.573384,88.449399 v 2.156805 c 0,2.389743 -1.927823,4.313617 -4.322475,4.313617 h -2.814633 c -2.394652,0 -4.322476,-1.923874 -4.322476,-4.313617 v -2.156805"
         sodipodi:nodetypes="cssssc" /><path
         style="fill:none;stroke:#333333;stroke-width:1.32303;stroke-linecap:butt;stroke-linejoin:bevel;stroke-dasharray:none;stroke-opacity:1"
         d="m 48.843592,94.919821 v 2.608236"
         id="path46"
         sodipodi:nodetypes="cc" /><path
         style="fill:none;stroke:#333333;stroke-width:1.32303;stroke-linecap:butt;stroke-linejoin:bevel;stroke-dasharray:none;stroke-opacity:1"
         d="m 45.262472,97.540593 3.58112,-0.01254 3.58112,-0.01254"
         id="path47"
         sodipodi:nodetypes="ccc" /></g><circle
       style="fill:#ff0000;fill-opacity:1;fill-rule:evenodd;stroke:#000000;stroke-width:1.32292;stroke-dasharray:none;stroke-opacity:1"
       id="circle48"
       cx="185.72343"
       cy="93.8834"
       r="3.3072901" /></g></svg>
